<?xml version="1.0" encoding="UTF-8"?>
<svg width="102px" height="102px" viewBox="0 0 102 102" version="1.1" xmlns="http://www.w3.org/2000/svg" xmlns:xlink="http://www.w3.org/1999/xlink">
    <title>Post</title>
    <defs>
        <path d="M57.6,4.8 L57.6,14.4 C57.6,17.051 55.451,19.2 52.8,19.2 L4.8,19.2 C2.149,19.2 0,17.051 0,14.4 L0,4.8 C0,2.149 2.149,0 4.8,0 L52.8,0 C55.451,0 57.6,2.149 57.6,4.8 Z" id="path-1"></path>
    </defs>
    <g id="Post" stroke="none" stroke-width="1" fill="none" fill-rule="evenodd">
        <rect id="Rectangle" fill="#F1F1F1" x="0" y="0" width="102.4" height="102.4" rx="9.8"></rect>
        <g id="broadcast-tower-solid" transform="translate(15.500000, 20.600000)" fill-rule="nonzero">
            <path d="M24.476,10.012 C25.181,8.983 25.596,7.741 25.596,6.4 C25.596,2.865 22.733,0 19.2,0 C15.668,0 12.804,2.865 12.804,6.4 C12.804,7.741 13.219,8.983 13.924,10.012 L0.874,41.353 C0.534,42.168 0.92,43.105 1.735,43.445 L4.686,44.676 C5.501,45.016 6.438,44.63 6.777,43.815 L11.696,32 L17.1189697,32 L22.6371091,32 C22.9055657,32 23.1561255,31.8653502 23.3042701,31.6414704 L29.1886062,22.7489149 C29.33332,22.5302198 29.3616624,22.2544861 29.2644634,22.010925 L24.476,10.012 L24.476,10.012 Z M14.362,25.6 L19.2,13.981 L24.038,25.6 L14.362,25.6 Z" id="Shape" fill="#522641"></path>
            <path d="M2.294,12.8 L5.667,12.8 C6.768,12.8 7.528,11.717 7.153,10.682 C6.66,9.324 6.398,7.884 6.398,6.4 C6.398,4.916 6.66,3.476 7.153,2.118 C7.529,1.083 6.768,0 5.667,0 L2.294,0 C1.593,0 0.948,0.449 0.753,1.123 C0.264,2.821 0,4.588 0,6.4 C0,8.212 0.264,9.979 0.754,11.676 C0.948,12.35 1.593,12.8 2.294,12.8 Z" id="Path" fill="#ED6A40"></path>
            <path d="M36.106,0 L32.733,0 C31.632,0 30.872,1.083 31.247,2.118 C31.74,3.476 32.002,4.916 32.002,6.4 C32.002,7.884 31.74,9.324 31.247,10.682 C30.871,11.717 31.632,12.8 32.733,12.8 L36.106,12.8 C36.808,12.8 37.452,12.351 37.647,11.676 C38.137,9.979 38.4,8.212 38.4,6.4 C38.4,4.588 38.136,2.821 37.646,1.124 C37.452,0.449 36.807,0 36.106,0 Z" id="Path" fill="#ED6A40"></path>
        </g>
        <g id="hdd-solid" transform="translate(34.700000, 40.800000)">
            <g id="Group" transform="translate(0.000000, 19.200000)">
                <mask id="mask-2" fill="white">
                    <use xlink:href="#path-1"></use>
                </mask>
                <use id="Mask" fill="#E5D2B4" fill-rule="nonzero" xlink:href="#path-1"></use>
            </g>
            <path d="M52.8,16 C53.8566613,15.9990736 54.9029211,16.2086519 55.8777,16.6165 L46.225,2.1374 C45.3347066,0.802084965 43.8359952,0 42.2311,0 L15.3689,0 C13.7640268,0 12.2653366,0.802073468 11.3751,2.1374 L1.7223,16.6165 C2.69707891,16.2086519 3.74333867,15.9990736 4.8,16 L52.8,16 Z" id="Path" fill="#E5D2B4" fill-rule="nonzero"></path>
            <path d="M49,25.6 C47.2327,25.6 45.8,27.0327 45.8,28.8 C45.8,30.5673 47.2327,32 49,32 C50.7673,32 52.2,30.5673 52.2,28.8 C52.2,27.0327 50.7673,25.6 49,25.6 Z" id="Path" fill="#ED6A40" fill-rule="nonzero"></path>
            <rect id="Rectangle" fill="#FFFFFF" fill-rule="nonzero" x="9.8" y="25.6" width="31.8" height="6.4" rx="0.8"></rect>
        </g>
        <path d="M34.7,72.5958328 L38.334671,75.8979164 L41.969342,79.2 C40.3165049,79.2 39.4649675,79.2 39.4147297,79.2 C38.5850639,79.2 36.9149765,78.8196831 36.0004547,77.6879021 C35.0859329,76.5561211 34.85597,76.0489872 34.7,74.582826 C34.7,74.4810911 34.7,73.81876 34.7,72.5958328 Z" id="Rectangle" fill="#ED6A40"></path>
        <polygon id="Rectangle" fill="#8C6373" points="34.7 71.2902451 43.3432495 79.2 41.969342 79.2 34.7 72.5958328"></polygon>
    </g>
</svg>